{
  "accessors": [
    {
      "bufferView": 2,
      "componentType": 5126,
      "count": 561,
      "max": [
        12.057093620300293,
        33.5,
        141.96438598632812
      ],
      "min": [
        -0.0087884841486811638,
        -0.5,
        137.2706298828125
      ],
      "type": "VEC3"
    },
    {
      "bufferView": 2,
      "byteOffset": 6732,
      "componentType": 5126,
      "count": 561,
      "max": [
        0.99985730648040771,
        1,
        1
      ],
      "min": [
        -0.99985730648040771,
        -1,
        -0.99985730648040771
      ],
      "type": "VEC3"
    },
    {
      "bufferView": 1,
      "componentType": 5126,
      "count": 561,
      "max": [
        0.068995632231235504,
        0.097043462097644806
      ],
      "min": [
        0.0005991330835968256,
        0.00042924375156871974
      ],
      "type": "VEC2"
    },
    {
      "bufferView": 0,
      "componentType": 5125,
      "count": 1968,
      "max": [
        560
      ],
      "min": [
        0
      ],
      "type": "SCALAR"
    },
    {
      "bufferView": 2,
      "byteOffset": 13464,
      "componentType": 5126,
      "count": 746,
      "max": [
        45.34222412109375,
        17.25,
        142.71577453613281
      ],
      "min": [
        13.565614700317383,
        14.75,
        139.14968872070312
      ],
      "type": "VEC3"
    },
    {
      "bufferView": 2,
      "byteOffset": 22416,
      "componentType": 5126,
      "count": 746,
      "max": [
        0.9977341890335083,
        1,
        0.99947279691696167
      ],
      "min": [
        -0.99947279691696167,
        -1,
        -0.99955219030380249
      ],
      "type": "VEC3"
    },
    {
      "bufferView": 1,
      "byteOffset": 4488,
      "componentType": 5126,
      "count": 746,
      "max": [
        0.089381836354732513,
        0.052956372499465942
      ],
      "min": [
        0.00038498983485624194,
        0.00074708304600790143
      ],
      "type": "VEC2"
    },
    {
      "bufferView": 0,
      "byteOffset": 7872,
      "componentType": 5125,
      "count": 2742,
      "max": [
        745
      ],
      "min": [
        0
      ],
      "type": "SCALAR"
    },
    {
      "bufferView": 2,
      "byteOffset": 31368,
      "componentType": 5126,
      "count": 2669,
      "max": [
        130.00076293945312,
        33,
        141.27005004882812
      ],
      "min": [
        -137.51431274414062,
        0,
        -133.64109802246094
      ],
      "type": "VEC3"
    },
    {
      "bufferView": 2,
      "byteOffset": 63396,
      "componentType": 5126,
      "count": 2669,
      "max": [
        1,
        1,
        0.99999988079071045
      ],
      "min": [
        -0.99999076128005981,
        -1,
        -0.99987083673477173
      ],
      "type": "VEC3"
    },
    {
      "bufferView": 1,
      "byteOffset": 10456,
      "componentType": 5126,
      "count": 2669,
      "max": [
        0.94049340486526489,
        0.95036399364471436
      ],
      "min": [
        0.00084388366667553782,
        0.0019666054286062717
      ],
      "type": "VEC2"
    },
    {
      "bufferView": 0,
      "byteOffset": 18840,
      "componentType": 5125,
      "count": 7650,
      "max": [
        2668
      ],
      "min": [
        0
      ],
      "type": "SCALAR"
    },
    {
      "bufferView": 2,
      "byteOffset": 95424,
      "componentType": 5126,
      "count": 1330,
      "max": [
        -85.490997314453125,
        35,
        108.97750091552734
      ],
      "min": [
        -97.517356872558594,
        -2,
        97.184684753417969
      ],
      "type": "VEC3"
    },
    {
      "bufferView": 2,
      "byteOffset": 111384,
      "componentType": 5126,
      "count": 1330,
      "max": [
        0.99958837032318115,
        1,
        1
      ],
      "min": [
        -0.99494850635528564,
        -1,
        -1
      ],
      "type": "VEC3"
    },
    {
      "bufferView": 1,
      "byteOffset": 31808,
      "componentType": 5126,
      "count": 1330,
      "max": [
        0.069563530385494232,
        0.10451298952102661
      ],
      "min": [
        0.00057747511891648173,
        0.00063581333961337805
      ],
      "type": "VEC2"
    },
    {
      "bufferView": 0,
      "byteOffset": 49440,
      "componentType": 5125,
      "count": 4860,
      "max": [
        1329
      ],
      "min": [
        0
      ],
      "type": "SCALAR"
    },
    {
      "bufferView": 2,
      "byteOffset": 127344,
      "componentType": 5126,
      "count": 1301,
      "max": [
        -28.574382781982422,
        35,
        139.08561706542969
      ],
      "min": [
        -39.848041534423828,
        -2,
        130.05563354492188
      ],
      "type": "VEC3"
    },
    {
      "bufferView": 2,
      "byteOffset": 142956,
      "componentType": 5126,
      "count": 1301,
      "max": [
        0.9999726414680481,
        1,
        1
      ],
      "min": [
        -0.99833059310913086,
        -1,
        -1
      ],
      "type": "VEC3"
    },
    {
      "bufferView": 1,
      "byteOffset": 42448,
      "componentType": 5126,
      "count": 1301,
      "max": [
        0.069553151726722717,
        0.10434255003929138
      ],
      "min": [
        0.00053052749717608094,
        0.00044429008266888559
      ],
      "type": "VEC2"
    },
    {
      "bufferView": 0,
      "byteOffset": 68880,
      "componentType": 5125,
      "count": 4776,
      "max": [
        1300
      ],
      "min": [
        0
      ],
      "type": "SCALAR"
    },
    {
      "bufferView": 2,
      "byteOffset": 158568,
      "componentType": 5126,
      "count": 2473,
      "max": [
        48.524070739746094,
        36.5,
        142.21260070800781
      ],
      "min": [
        12.065614700317383,
        -4.5,
        135.9810791015625
      ],
      "type": "VEC3"
    },
    {
      "bufferView": 2,
      "byteOffset": 188244,
      "componentType": 5126,
      "count": 2473,
      "max": [
        1,
        1,
        1
      ],
      "min": [
        -1,
        -1,
        -1
      ],
      "type": "VEC3"
    },
    {
      "bufferView": 1,
      "byteOffset": 52856,
      "componentType": 5126,
      "count": 2473,
      "max": [
        0.1029379814863205,
        0.12380246818065643
      ],
      "min": [
        0.0002241557085653767,
        0.00045744117232970893
      ],
      "type": "VEC2"
    },
    {
      "bufferView": 0,
      "byteOffset": 87984,
      "componentType": 5125,
      "count": 8610,
      "max": [
        2472
      ],
      "min": [
        0
      ],
      "type": "SCALAR"
    }
  ],
  "asset": {
    "extras": {
      "author": "3DDomino (https://sketchfab.com/3DDomino)",
      "license": "CC-BY-4.0 (http://creativecommons.org/licenses/by/4.0/)",
      "source": "https://sketchfab.com/3d-models/belt-180f1c0ab5f64b90ac17db9f89c3eafc",
      "title": "Belt"
    },
    "generator": "Sketchfab-9.80.0",
    "version": "2.0"
  },
  "bufferViews": [
    {
      "buffer": 0,
      "byteLength": 122424,
      "byteOffset": 0,
      "name": "floatBufferViews",
      "target": 34963
    },
    {
      "buffer": 0,
      "byteLength": 72640,
      "byteOffset": 122424,
      "byteStride": 8,
      "name": "floatBufferViews",
      "target": 34962
    },
    {
      "buffer": 0,
      "byteLength": 217920,
      "byteOffset": 195064,
      "byteStride": 12,
      "name": "floatBufferViews",
      "target": 34962
    }
  ],
  "buffers": [
    {
      "byteLength": 412984,
      "uri": "scene.bin"
    }
  ],
  "materials": [
    {
      "doubleSided": true,
      "emissiveFactor": [
        0,
        0,
        0
      ],
      "name": "Steel_Rough",
      "pbrMetallicRoughness": {
        "baseColorFactor": [
          0.33108273651581677,
          0.32184228818387406,
          0.31518421766480964,
          1
        ],
        "metallicFactor": 1,
        "roughnessFactor": 0.45715453976129239
      }
    },
    {
      "doubleSided": true,
      "emissiveFactor": [
        0,
        0,
        0
      ],
      "name": "Steel_Rough_0",
      "pbrMetallicRoughness": {
        "baseColorFactor": [
          0.61960800000000005,
          0.59215700000000004,
          0.57254899999999997,
          1
        ],
        "metallicFactor": 1,
        "roughnessFactor": 0.39027263496464382
      }
    },
    {
      "doubleSided": true,
      "name": "Leather_Black_1000mm",
      "pbrMetallicRoughness": {
        "baseColorFactor": [
          0.0010274254089153144,
          0.0010183331486594265,
          0.0010183331486594265,
          1
        ],
        "metallicFactor": 0,
        "roughnessFactor": 0.77997221360864355
      }
    },
    {
      "doubleSided": true,
      "emissiveFactor": [
        0,
        0,
        0
      ],
      "name": "Leather_Black_1000mm_0",
      "pbrMetallicRoughness": {
        "baseColorFactor": [
          0.0020548508178306287,
          0.002036666297318853,
          0.002036666297318853,
          1
        ],
        "metallicFactor": 0,
        "roughnessFactor": 0.95770514946237739
      }
    },
    {
      "doubleSided": true,
      "emissiveFactor": [
        0,
        0,
        0
      ],
      "name": "Leather_Black_1000mm_1",
      "pbrMetallicRoughness": {
        "baseColorFactor": [
          0.00034247513630510481,
          0.00033944438288647556,
          0.00033944438288647556,
          1
        ],
        "metallicFactor": 0,
        "roughnessFactor": 0.95770514946237739
      }
    },
    {
      "doubleSided": true,
      "emissiveFactor": [
        0,
        0,
        0
      ],
      "name": "Steel_Rough_1",
      "pbrMetallicRoughness": {
        "baseColorFactor": [
          0.61960800000000005,
          0.59215700000000004,
          0.57254899999999997,
          1
        ],
        "metallicFactor": 1,
        "roughnessFactor": 0.42675367394463393
      }
    }
  ],
  "meshes": [
    {
      "name": "Belt 3_Steel Rough_0",
      "primitives": [
        {
          "attributes": {
            "NORMAL": 1,
            "POSITION": 0,
            "TEXCOORD_0": 2
          },
          "indices": 3,
          "material": 0,
          "mode": 4
        }
      ]
    },
    {
      "name": "Belt 3_Steel Rough_0",
      "primitives": [
        {
          "attributes": {
            "NORMAL": 5,
            "POSITION": 4,
            "TEXCOORD_0": 6
          },
          "indices": 7,
          "material": 1,
          "mode": 4
        }
      ]
    },
    {
      "name": "Belt 3_Leather Black 1000mm_0",
      "primitives": [
        {
          "attributes": {
            "NORMAL": 9,
            "POSITION": 8,
            "TEXCOORD_0": 10
          },
          "indices": 11,
          "material": 2,
          "mode": 4
        }
      ]
    },
    {
      "name": "Belt 3_Leather Black 1000mm_0",
      "primitives": [
        {
          "attributes": {
            "NORMAL": 13,
            "POSITION": 12,
            "TEXCOORD_0": 14
          },
          "indices": 15,
          "material": 3,
          "mode": 4
        }
      ]
    },
    {
      "name": "Belt 3_Leather Black 1000mm_0",
      "primitives": [
        {
          "attributes": {
            "NORMAL": 17,
            "POSITION": 16,
            "TEXCOORD_0": 18
          },
          "indices": 19,
          "material": 4,
          "mode": 4
        }
      ]
    },
    {
      "name": "Belt 3_Steel Rough_0",
      "primitives": [
        {
          "attributes": {
            "NORMAL": 21,
            "POSITION": 20,
            "TEXCOORD_0": 22
          },
          "indices": 23,
          "material": 5,
          "mode": 4
        }
      ]
    }
  ],
  "nodes": [
    {
      "children": [
        1
      ],
      "name": "RootNode (gltf orientation matrix)",
      "rotation": [
        -0.70710678118654746,
        -0,
        -0,
        0.70710678118654757
      ]
    },
    {
      "children": [
        2
      ],
      "name": "RootNode (model correction matrix)"
    },
    {
      "children": [
        3
      ],
      "matrix": [
        1,
        0,
        0,
        0,
        0,
        0,
        1,
        0,
        0,
        -1,
        0,
        0,
        0,
        0,
        0,
        1
      ],
      "name": "82c060773b3e4b29b59b9ba393601f03.fbx"
    },
    {
      "children": [
        4,
        6
      ],
      "name": "RootNode"
    },
    {
      "children": [
        5
      ],
      "matrix": [
        -0.17285692700995203,
        -0.30003988758783962,
        -0.93813461115180719,
        0,
        -0.054368962604090645,
        0.95392665643448482,
        -0.2950727877136069,
        0,
        0.98344521895733017,
        3.0262881672848962e-08,
        -0.18120568785214219,
        0,
        105.40882873535156,
        160.32984924316406,
        497.66424560546875,
        1
      ],
      "name": "Active Camera"
    },
    {
      "name": ""
    },
    {
      "children": [
        7
      ],
      "name": "Default"
    },
    {
      "children": [
        8,
        11,
        14,
        17,
        20,
        23
      ],
      "matrix": [
        1,
        0,
        0,
        0,
        0,
        1,
        0,
        0,
        0,
        0,
        1,
        0,
        3.7567698955535889,
        4.5,
        -4.5373401641845703,
        1
      ],
      "name": "Belt 3"
    },
    {
      "children": [
        9
      ],
      "name": "Belt 3"
    },
    {
      "children": [
        10
      ],
      "name": "Belt 3"
    },
    {
      "mesh": 0,
      "name": "Belt 3_Steel Rough_0"
    },
    {
      "children": [
        12
      ],
      "name": "Belt 3"
    },
    {
      "children": [
        13
      ],
      "name": "Belt 3"
    },
    {
      "mesh": 1,
      "name": "Belt 3_Steel Rough_0"
    },
    {
      "children": [
        15
      ],
      "name": "Belt 3"
    },
    {
      "children": [
        16
      ],
      "name": "Belt 3"
    },
    {
      "mesh": 2,
      "name": "Belt 3_Leather Black 1000mm_0"
    },
    {
      "children": [
        18
      ],
      "name": "Belt 3"
    },
    {
      "children": [
        19
      ],
      "name": "Belt 3"
    },
    {
      "mesh": 3,
      "name": "Belt 3_Leather Black 1000mm_0"
    },
    {
      "children": [
        21
      ],
      "name": "Belt 3"
    },
    {
      "children": [
        22
      ],
      "name": "Belt 3"
    },
    {
      "mesh": 4,
      "name": "Belt 3_Leather Black 1000mm_0"
    },
    {
      "children": [
        24
      ],
      "name": "Belt 3"
    },
    {
      "children": [
        25
      ],
      "name": "Belt 3"
    },
    {
      "mesh": 5,
      "name": "Belt 3_Steel Rough_0"
    }
  ],
  "scene": 0,
  "scenes": [
    {
      "name": "OSG_Scene",
      "nodes": [
        0
      ]
    }
  ]
}

